<svg width="164" height="29" viewBox="0 0 164 29" fill="none" xmlns="http://www.w3.org/2000/svg">
<path d="M24.563 0.533333C24.8964 0.533333 25.1297 0.655555 25.263 0.9C25.4186 1.12222 25.4964 1.38889 25.4964 1.7V23.7C25.4964 24.2111 25.463 24.7222 25.3964 25.2333C25.3297 25.7444 25.163 26.2111 24.8964 26.6333C24.6519 27.0333 24.2741 27.3667 23.763 27.6333C23.2519 27.8778 22.5408 28 21.6297 28C21.0297 28 20.4964 27.9889 20.0297 27.9667C19.563 27.9444 19.1297 27.8556 18.7297 27.7C18.3519 27.5444 17.9964 27.3 17.663 26.9667C17.3297 26.6333 16.9964 26.1667 16.663 25.5667L5.99635 6.76667H5.82968V26.8333C5.82968 27.1444 5.75191 27.4222 5.59635 27.6667C5.46302 27.8889 5.22968 28 4.89635 28H1.92968C1.59635 28 1.35191 27.8889 1.19635 27.6667C1.0408 27.4222 0.963018 27.1444 0.963018 26.8333V4.83333C0.963018 4.3 0.98524 3.77778 1.02968 3.26667C1.09635 2.75556 1.22968 2.3 1.42968 1.9C1.62968 1.5 1.91857 1.17778 2.29635 0.933333C2.67413 0.666667 3.18524 0.533333 3.82968 0.533333H6.32968C6.88524 0.533333 7.32968 0.577778 7.66302 0.666667C8.01857 0.755555 8.30746 0.9 8.52968 1.1C8.77413 1.27778 8.99635 1.52222 9.19635 1.83333C9.39635 2.14444 9.61857 2.52222 9.86302 2.96667L20.4964 21.7667H20.663V1.7C20.663 1.38889 20.7297 1.12222 20.863 0.9C20.9964 0.655555 21.2408 0.533333 21.5964 0.533333H24.563ZM49.4839 0.533333C49.6172 0.533333 49.8061 0.6 50.0505 0.733333C50.295 0.866666 50.4172 1.18889 50.4172 1.7V4.3C50.4172 4.81111 50.295 5.13333 50.0505 5.26667C49.8061 5.4 49.6172 5.46667 49.4839 5.46667H30.3172C30.1839 5.46667 29.995 5.41111 29.7505 5.3C29.5283 5.16667 29.4172 4.84444 29.4172 4.33333V1.73333C29.4172 1.2 29.5283 0.866666 29.7505 0.733333C29.995 0.6 30.1839 0.533333 30.3172 0.533333H49.4839ZM34.4172 20.0333C34.4172 21.1667 34.7061 21.9556 35.2839 22.4C35.8839 22.8444 36.695 23.0667 37.7172 23.0667H49.4505C49.8061 23.0667 50.0505 23.1778 50.1839 23.4C50.3394 23.6222 50.4172 23.8889 50.4172 24.2V26.8667C50.4172 27.1778 50.3394 27.4444 50.1839 27.6667C50.0505 27.8889 49.8061 28 49.4505 28H37.6172C36.0172 28 34.6839 27.7778 33.6172 27.3333C32.5727 26.8667 31.7394 26.2111 31.1172 25.3667C30.495 24.5222 30.0505 23.5111 29.7839 22.3333C29.5394 21.1333 29.4172 19.8 29.4172 18.3333V13.9333C29.4172 13.6667 29.4616 13.4 29.5505 13.1333C29.6394 12.8444 29.7839 12.6 29.9839 12.4C30.2061 12.1778 30.4839 12 30.8172 11.8667C31.1727 11.7333 31.6061 11.6667 32.1172 11.6667H49.3172C49.6505 11.6667 49.8839 11.7778 50.0172 12C50.1727 12.2222 50.2505 12.4889 50.2505 12.8V15.4333C50.2505 15.7444 50.1727 16.0222 50.0172 16.2667C49.8839 16.4889 49.6505 16.6 49.3172 16.6H34.4172V20.0333ZM73.7401 0.533333C73.8734 0.533333 74.0623 0.6 74.3068 0.733333C74.5512 0.866666 74.6734 1.18889 74.6734 1.7V4.3C74.6734 4.81111 74.5512 5.13333 74.3068 5.26667C74.0623 5.4 73.8734 5.46667 73.7401 5.46667H54.5734C54.4401 5.46667 54.2512 5.41111 54.0068 5.3C53.7845 5.16667 53.6734 4.84444 53.6734 4.33333V1.73333C53.6734 1.2 53.7845 0.866666 54.0068 0.733333C54.2512 0.6 54.4401 0.533333 54.5734 0.533333H73.7401ZM58.6734 20.0333C58.6734 21.1667 58.9623 21.9556 59.5401 22.4C60.1401 22.8444 60.9512 23.0667 61.9734 23.0667H73.7068C74.0623 23.0667 74.3068 23.1778 74.4401 23.4C74.5957 23.6222 74.6734 23.8889 74.6734 24.2V26.8667C74.6734 27.1778 74.5957 27.4444 74.4401 27.6667C74.3068 27.8889 74.0623 28 73.7068 28H61.8734C60.2734 28 58.9401 27.7778 57.8734 27.3333C56.829 26.8667 55.9957 26.2111 55.3734 25.3667C54.7512 24.5222 54.3068 23.5111 54.0401 22.3333C53.7957 21.1333 53.6734 19.8 53.6734 18.3333V13.9333C53.6734 13.6667 53.7179 13.4 53.8068 13.1333C53.8957 12.8444 54.0401 12.6 54.2401 12.4C54.4623 12.1778 54.7401 12 55.0734 11.8667C55.429 11.7333 55.8623 11.6667 56.3734 11.6667H73.5734C73.9068 11.6667 74.1401 11.7778 74.2734 12C74.429 12.2222 74.5068 12.4889 74.5068 12.8V15.4333C74.5068 15.7444 74.429 16.0222 74.2734 16.2667C74.1401 16.4889 73.9068 16.6 73.5734 16.6H58.6734V20.0333ZM92.5297 0.533333C94.3297 0.533333 95.8075 0.822222 96.963 1.4C98.1408 1.95555 99.063 2.73333 99.7297 3.73333C100.396 4.73333 100.852 5.91111 101.096 7.26666C101.363 8.62222 101.496 10.0889 101.496 11.6667V16.8667C101.496 18.4667 101.363 19.9444 101.096 21.3C100.852 22.6556 100.396 23.8333 99.7297 24.8333C99.063 25.8111 98.1408 26.5889 96.963 27.1667C95.8075 27.7222 94.3297 28 92.5297 28H81.163C80.8519 28 80.5186 27.9444 80.163 27.8333C79.8297 27.7 79.5186 27.5222 79.2297 27.3C78.963 27.0778 78.7297 26.8222 78.5297 26.5333C78.3519 26.2222 78.263 25.8889 78.263 25.5333V2.8C78.263 2.11111 78.5186 1.56667 79.0297 1.16667C79.563 0.744444 80.1852 0.533333 80.8964 0.533333H92.5297ZM92.4297 23.0667C93.3852 23.0667 94.1297 22.9222 94.663 22.6333C95.2186 22.3444 95.6297 21.9444 95.8964 21.4333C96.1852 20.9 96.363 20.2889 96.4297 19.6C96.5186 18.9111 96.563 18.1667 96.563 17.3667V11.1667C96.563 10.3667 96.5186 9.62222 96.4297 8.93333C96.363 8.24444 96.1852 7.64444 95.8964 7.13333C95.6297 6.62222 95.2186 6.22222 94.663 5.93333C94.1297 5.62222 93.3852 5.46667 92.4297 5.46667H83.1964V23.0667H92.4297ZM109.449 0.533333C109.582 0.533333 109.771 0.6 110.016 0.733333C110.26 0.866666 110.382 1.18889 110.382 1.7V26.8667C110.382 27.3778 110.26 27.7 110.016 27.8333C109.771 27.9667 109.582 28.0333 109.449 28.0333H106.382C106.249 28.0333 106.06 27.9667 105.816 27.8333C105.571 27.7 105.449 27.3778 105.449 26.8667V1.7C105.449 1.18889 105.571 0.866666 105.816 0.733333C106.06 0.6 106.249 0.533333 106.382 0.533333H109.449ZM134.733 0.533333C135.066 0.533333 135.299 0.655555 135.433 0.9C135.588 1.12222 135.666 1.38889 135.666 1.7V4.33333C135.666 4.64444 135.588 4.91111 135.433 5.13333C135.299 5.35556 135.066 5.46667 134.733 5.46667H115.566C115.233 5.46667 114.999 5.34444 114.866 5.1C114.733 4.85555 114.666 4.58889 114.666 4.3V1.73333C114.666 1.44444 114.733 1.17778 114.866 0.933333C114.999 0.666667 115.233 0.533333 115.566 0.533333H134.733ZM134.566 11.7C134.899 11.7 135.133 11.8222 135.266 12.0667C135.422 12.2889 135.499 12.5556 135.499 12.8667V15.5C135.499 15.8111 135.422 16.0778 135.266 16.3C135.133 16.5222 134.899 16.6333 134.566 16.6333H119.666V26.8333C119.666 27.1444 119.599 27.4222 119.466 27.6667C119.333 27.8889 119.088 28 118.733 28H115.666C115.333 28 115.088 27.8889 114.933 27.6667C114.799 27.4222 114.733 27.1444 114.733 26.8333V13.9667C114.733 13.4111 114.955 12.9 115.399 12.4333C115.866 11.9444 116.522 11.7 117.366 11.7H134.566ZM162.774 0.533333C162.974 0.533333 163.152 0.611111 163.307 0.766666C163.485 0.9 163.518 1.05556 163.407 1.23333L153.174 19.5667V26.8667C153.174 27.1778 153.096 27.4444 152.941 27.6667C152.807 27.8889 152.574 28 152.241 28H149.174C148.841 28 148.596 27.8889 148.441 27.6667C148.307 27.4444 148.241 27.1778 148.241 26.8667V19.5667L138.107 1.23333C137.996 1.05556 138.018 0.9 138.174 0.766666C138.33 0.611111 138.518 0.533333 138.741 0.533333H142.541C142.985 0.533333 143.307 0.744444 143.507 1.16667L150.774 14.5L158.107 1.13333C158.33 0.733333 158.652 0.533333 159.074 0.533333H162.774Z" fill="#0098EA"/>
</svg>
