<svg width="161" height="160" viewBox="0 0 161 160" fill="none" xmlns="http://www.w3.org/2000/svg">
<g clip-path="url(#clip0_2044_7829)">
<path d="M51.5583 38.8284V31.8567C53.9117 30.8534 56.31 29.9717 58.7533 29.2117C61.1967 28.45 63.6717 27.8134 66.18 27.3017C68.6867 26.79 71.2133 26.405 73.76 26.1484C76.305 25.8917 78.8583 25.7634 81.4167 25.7634C83.975 25.7634 86.5283 25.8917 89.0733 26.1484C91.62 26.405 94.1467 26.79 96.6533 27.3017C99.1617 27.8134 101.637 28.45 104.08 29.2117C106.523 29.9717 108.922 30.8534 111.275 31.8567V37.9017L131.548 34.1767L118.573 34.24V27.1267L115.713 25.8317C113.023 24.62 110.278 23.555 107.477 22.6334C104.675 21.7134 101.832 20.9434 98.9483 20.3234C96.065 19.7034 93.1567 19.2384 90.2233 18.9267C87.2917 18.615 84.35 18.4584 81.4017 18.4584C78.4517 18.4584 75.51 18.615 72.5783 18.9267C69.645 19.2384 66.7367 19.7034 63.8533 20.3234C60.97 20.9434 58.1267 21.7134 55.325 22.6334C52.5233 23.555 49.7783 24.62 47.09 25.8317L44.2233 27.1267V34.245L29.3417 34.1767L51.5583 38.8284Z" fill="#1E2337"/>
<mask id="mask0_2044_7829" style="mask-type:luminance" maskUnits="userSpaceOnUse" x="47" y="61" width="68" height="36">
<path d="M47.86 61.8667H114.847V96.32H47.86V61.8667Z" fill="white"/>
</mask>
<g mask="url(#mask0_2044_7829)">
<path d="M106.628 62.2184C105.952 63.6951 105.207 65.1434 104.392 66.5617C103.272 68.5034 102.027 70.365 100.662 72.145C99.2966 73.9267 97.8216 75.61 96.2366 77.1967C94.65 78.7834 92.9683 80.26 91.1883 81.6267C89.41 82.9934 87.55 84.2384 85.6066 85.3617L81.4166 87.7767L77.2266 85.3617C75.2816 84.24 73.42 82.995 71.6383 81.6284C69.8583 80.2617 68.1733 78.785 66.5866 77.1984C65 75.6117 63.5216 73.9267 62.155 72.1467C60.7883 70.3667 59.5433 68.505 58.42 66.5617L58.0483 65.9067C56.86 64.7701 55.7683 63.5484 54.775 62.2401H48.2633C49.4666 65.3184 50.9183 68.2734 52.6216 71.105C54.3233 73.9384 56.2516 76.6084 58.405 79.115C60.5583 81.6217 62.9066 83.93 65.4516 86.04C67.995 88.15 70.6966 90.0317 73.5583 91.685L81.4166 96.205L89.275 91.685C92.1383 90.0317 94.8433 88.1484 97.39 86.0367C99.9366 83.9267 102.287 81.6167 104.443 79.1084C106.598 76.5984 108.528 73.9267 110.232 71.0917C111.935 68.2567 113.388 65.3 114.592 62.2184H106.628Z" fill="#1E2337"/>
</g>
<path d="M149.138 43.7067C153.697 43.4334 160.27 31.3284 160.27 31.3284L103.172 41.805C102.133 41.995 101.088 42.0434 100.037 41.945C98.985 41.8467 97.965 41.6084 96.98 41.2284L84.79 36.535C84.2417 36.3234 83.6767 36.1834 83.0933 36.1167C82.51 36.05 81.9267 36.0567 81.345 36.1367C80.7633 36.2167 80.2 36.37 79.6567 36.5934C79.1133 36.8167 78.6083 37.105 78.1367 37.4567L66.98 45.8384C66.765 46 66.6583 46.2134 66.66 46.4817C66.6583 46.75 66.765 46.9634 66.98 47.1217C67.2317 47.31 67.4967 47.475 67.7767 47.6217C68.055 47.7667 68.3433 47.8884 68.6417 47.9867C68.94 48.0867 69.245 48.1617 69.555 48.2117C69.865 48.2617 70.1783 48.2867 70.4917 48.2867C70.8067 48.2867 71.1183 48.2617 71.4283 48.2117C71.74 48.1617 72.0433 48.0867 72.3417 47.9867C72.64 47.8884 72.93 47.7667 73.2083 47.6217C73.4867 47.475 73.7517 47.31 74.005 47.1217L78.5667 43.695C78.8417 43.4917 79.13 43.31 79.4317 43.1534C79.735 42.995 80.0483 42.8634 80.3733 42.755C80.6967 42.6484 81.0283 42.5667 81.365 42.5134C81.7017 42.4584 82.0417 42.4317 82.3833 42.4317C82.725 42.4317 83.0633 42.4584 83.4017 42.5134C83.7383 42.5667 84.0683 42.6484 84.3933 42.755C84.7167 42.8634 85.0317 42.995 85.3333 43.1534C85.6367 43.31 85.925 43.4917 86.2 43.695L102.407 55.895C102.918 56.2684 103.342 56.7234 103.677 57.26C104.01 57.7984 104.232 58.3784 104.34 59.0017V59.0384C104.363 59.155 104.405 59.2634 104.467 59.3634C104.527 59.465 104.603 59.5517 104.695 59.625C104.788 59.7 104.89 59.755 105.002 59.7934C105.113 59.8317 105.228 59.8484 105.345 59.845C105.345 59.845 124.393 60.73 130.622 61.4167C133.638 61.7517 140.05 55.655 140.05 55.655L124.063 52.925C130.285 53.3917 138.327 53.9367 142.523 53.9417C146.122 53.9417 152.822 45.5867 152.822 45.5867L114.743 45.8384C114.743 45.8384 139.7 44.2717 149.138 43.7067Z" fill="#38B6FF"/>
<path d="M102.04 59.51C101.993 59.1617 101.878 58.8384 101.695 58.5367C101.513 58.2367 101.28 57.985 100.993 57.7817L84.7533 45.5767C84.4067 45.315 84.0283 45.1167 83.6167 44.98C83.205 44.8417 82.7833 44.7734 82.3483 44.7734C81.915 44.7734 81.4933 44.8417 81.0817 44.98C80.67 45.1167 80.2917 45.315 79.945 45.5767L75.3817 48.9967C75.0283 49.26 74.6567 49.4934 74.2667 49.6967C73.875 49.9 73.4717 50.0717 73.0533 50.21C72.635 50.3484 72.2083 50.4534 71.7733 50.5234C71.3383 50.5934 70.9017 50.63 70.46 50.63C70.02 50.63 69.5817 50.5934 69.1467 50.5234C68.7133 50.4534 68.2867 50.3484 67.8683 50.21C67.45 50.0717 67.045 49.9 66.655 49.6967C66.265 49.4934 65.8917 49.26 65.5383 48.9967C65.1283 48.6884 64.8117 48.3034 64.59 47.8417C64.3683 47.3784 64.265 46.89 64.2817 46.3784C64.3083 45.8817 64.44 45.4167 64.6767 44.98C64.9133 44.545 65.2317 44.1817 65.6333 43.89L73.4917 37.9967C73.565 37.9534 73.6267 37.8984 73.68 37.8317C73.7317 37.765 73.77 37.6917 73.795 37.61C73.82 37.5284 73.8283 37.4467 73.82 37.3617C73.8133 37.2767 73.7917 37.1967 73.7533 37.12C73.7167 37.045 73.6667 36.9784 73.6033 36.9217C73.54 36.8634 73.47 36.82 73.39 36.79C73.3117 36.76 73.2283 36.745 73.1433 36.7467C73.06 36.7484 72.9783 36.765 72.8983 36.7967L59.9817 41.3067C58.995 41.6517 57.9817 41.8584 56.9383 41.9267C55.8967 41.9934 54.8633 41.92 53.8417 41.705L49.0167 40.7617V40.73C48.8233 40.705 48.6617 40.6784 48.535 40.6517L0.744995 31.3284C0.744995 31.3284 7.32 43.4334 11.8767 43.7067C21.3067 44.2717 46.2617 45.885 46.2617 45.885L8.17833 45.6334C8.17833 45.6334 14.8883 54 18.4833 53.9884C22.6733 53.9884 30.72 53.465 36.9433 52.9734L20.95 55.7017C20.95 55.7017 27.3767 61.7834 30.3783 61.4634C34.4967 61.0034 54.9517 59.8934 55 59.8934C55.785 59.8934 56.0467 60.0134 56.2883 60.3334C56.945 61.2434 57.6533 62.1134 58.4133 62.94C59.1733 63.7667 59.98 64.5467 60.8317 65.2784C61.6833 66.0117 62.5767 66.69 63.5083 67.3167C64.4417 67.9434 65.4067 68.5117 66.4067 69.0234C67.4067 69.5367 68.4333 69.9867 69.4867 70.3784C70.54 70.7684 71.6133 71.095 72.705 71.36C73.7967 71.6234 74.9 71.8217 76.015 71.955C77.1317 72.0884 78.25 72.155 79.3733 72.155H79.4517C79.6283 72.1584 79.7983 72.1334 79.9667 72.0817C80.1333 72.0284 80.2867 71.95 80.43 71.8484C80.5717 71.745 80.6933 71.6217 80.795 71.48C80.8967 71.3367 80.9733 71.1817 81.0233 71.0134C81.0817 70.8517 81.1117 70.6834 81.1167 70.5117C81.1233 70.3384 81.1017 70.17 81.055 70.0034C81.0083 69.8384 80.9367 69.6834 80.8433 69.5384C80.7483 69.395 80.6333 69.2684 80.5 69.16L78.1583 67.3934C78.0333 67.3034 77.93 67.1934 77.8467 67.065C77.7633 66.935 77.7067 66.795 77.6767 66.6434C77.6467 66.4917 77.645 66.34 77.6717 66.1884C77.6983 66.0367 77.7533 65.8967 77.8333 65.765C77.9233 65.6317 78.0367 65.5217 78.1717 65.435C78.3083 65.3467 78.455 65.29 78.6133 65.2634C78.7733 65.2367 78.93 65.2434 79.0867 65.28C79.2433 65.3184 79.3867 65.385 79.515 65.4817L81.835 67.2267L81.945 67.31L85.89 70.28C86.0967 70.435 86.3233 70.5534 86.57 70.635C86.815 70.7167 87.0667 70.7584 87.325 70.7584C87.585 70.7584 87.8367 70.7167 88.0817 70.635C88.3283 70.5534 88.5533 70.435 88.7617 70.28C89.2167 69.95 89.515 69.5117 89.6517 68.965C89.7133 68.7367 89.74 68.505 89.7333 68.2684C89.725 68.0317 89.6833 67.8 89.6067 67.5767C89.53 67.3534 89.4233 67.145 89.2833 66.9534C89.145 66.7617 88.9817 66.5934 88.7917 66.4517L84.0367 62.8884C83.9233 62.8067 83.8283 62.71 83.75 62.595C83.6717 62.48 83.615 62.3567 83.58 62.2217C83.545 62.0884 83.5333 61.9517 83.545 61.8134C83.5567 61.675 83.5917 61.5434 83.6483 61.4167C83.685 61.3384 83.7317 61.265 83.785 61.1967C83.84 61.1284 83.9 61.0667 83.9667 61.0117C84.035 60.9584 84.1083 60.9117 84.185 60.8717C84.2633 60.8334 84.345 60.805 84.4283 60.7834C84.5133 60.7634 84.6 60.7517 84.6867 60.75C84.7733 60.7484 84.8583 60.7567 84.945 60.775C85.03 60.7917 85.1117 60.8184 85.19 60.855C85.27 60.8917 85.345 60.935 85.4133 60.9867L90.185 64.56L92.8367 66.5567C93.0383 66.7134 93.2583 66.8367 93.4967 66.925C93.7367 67.015 93.985 67.065 94.24 67.0784C94.495 67.09 94.7467 67.0634 94.9933 66.9967C95.24 66.9317 95.47 66.83 95.6867 66.6917C95.845 66.5867 95.9883 66.4634 96.1183 66.3234C96.2467 66.185 96.3583 66.0317 96.45 65.865C96.5433 65.6984 96.615 65.5234 96.6667 65.34C96.7167 65.1567 96.7467 64.97 96.7517 64.78C96.7583 64.59 96.7433 64.4017 96.7033 64.215C96.665 64.0284 96.605 63.8484 96.525 63.6767C96.4433 63.505 96.3433 63.345 96.2233 63.1967C96.1033 63.0484 95.9683 62.915 95.8167 62.8L89.83 58.29C89.7167 58.2084 89.6217 58.11 89.5433 57.9967C89.4633 57.8817 89.4067 57.7584 89.3717 57.6234C89.335 57.49 89.3233 57.3534 89.335 57.215C89.345 57.0767 89.38 56.945 89.4367 56.8184C89.475 56.74 89.52 56.6667 89.5733 56.5984C89.6283 56.53 89.6883 56.4684 89.7567 56.4134C89.8233 56.3584 89.8967 56.3117 89.9733 56.2734C90.0517 56.235 90.1333 56.205 90.2183 56.185C90.3017 56.1634 90.3883 56.1534 90.475 56.1517C90.5617 56.15 90.6483 56.1584 90.7333 56.175C90.8183 56.1934 90.9 56.22 90.98 56.255C91.0583 56.2917 91.1333 56.335 91.2017 56.3884L97.21 60.9084H97.2367L98.1067 61.5634C98.2317 61.6567 98.365 61.7384 98.505 61.8084C98.6467 61.8767 98.7917 61.9317 98.9433 61.975C99.0933 62.0167 99.2467 62.0434 99.4033 62.0567C99.56 62.07 99.715 62.0684 99.8717 62.0534C100.027 62.0367 100.18 62.0067 100.33 61.9617C100.48 61.9184 100.625 61.86 100.765 61.7884C100.903 61.7167 101.035 61.6334 101.16 61.5384C101.283 61.4417 101.397 61.335 101.5 61.2184C101.698 60.98 101.843 60.7117 101.937 60.4167C102.03 60.1217 102.065 59.8184 102.04 59.51Z" fill="#38B6FF"/>
<path d="M23.2066 108.508H20.9799C20.7532 108.508 20.2799 108.588 20.2799 109.388V124.401C20.2799 124.421 20.2799 124.421 20.2799 124.448H20.1532C20.1332 124.448 20.1066 124.448 20.0799 124.374L12.1866 110.334C11.9866 109.961 11.8132 109.661 11.6399 109.434C11.4666 109.188 11.2866 108.988 11.1132 108.861C10.9132 108.708 10.6866 108.608 10.4132 108.561C10.1666 108.534 9.86656 108.508 9.5399 108.508H7.66656C6.9399 108.508 6.39323 108.761 6.0399 109.208C5.69323 109.688 5.5199 110.508 5.5199 111.734V128.248C5.5199 129.021 6.0199 129.121 6.2399 129.121H8.46656C8.69323 129.121 9.16656 129.021 9.16656 128.248V113.234C9.16656 113.208 9.16656 113.181 9.16656 113.181H9.29323C9.29323 113.181 9.31323 113.181 9.36656 113.254L17.2866 127.294C17.4866 127.694 17.6866 127.994 17.8599 128.221C18.0332 128.468 18.2066 128.648 18.4066 128.768C18.6066 128.921 18.8332 128.994 19.0799 129.048C19.3066 129.094 19.5799 129.121 19.9332 129.121H21.7532C22.4799 129.121 23.0266 128.868 23.3799 128.394C23.7266 127.948 23.9066 127.121 23.9066 125.894V109.388C23.9066 108.588 23.4066 108.508 23.2066 108.508Z" fill="#38B6FF"/>
<path d="M46.0879 124.621H37.2945C36.7679 124.621 36.3412 124.548 35.9945 124.448C35.6679 124.321 35.4412 124.148 35.2479 123.901C35.0479 123.621 34.8945 123.248 34.8212 122.774C34.7945 122.648 34.7945 122.474 34.7679 122.348C34.7679 122.348 34.7945 120.554 34.8212 120.554H45.9879C46.1879 120.554 46.6879 120.454 46.6879 119.674V117.701C46.6879 116.928 46.1879 116.854 45.9879 116.854L33.0945 116.881C32.3745 116.928 31.7479 117.301 31.3945 117.928C31.2745 118.128 31.1745 118.328 31.1212 118.554L31.0745 121.701V121.828C31.1012 123.001 31.2212 124.001 31.3945 124.821C31.6212 125.821 31.9945 126.648 32.4745 127.268C32.9745 127.921 33.6212 128.368 34.4212 128.648C35.1945 128.948 36.1212 129.068 37.2212 129.068H46.0879C46.3079 129.068 46.8079 128.994 46.8079 128.221V125.474C46.8079 124.701 46.3079 124.621 46.0879 124.621ZM46.1079 108.461H31.7479C31.5479 108.461 31.0745 108.561 31.0745 109.361V111.308C31.0745 112.081 31.5479 112.161 31.7479 112.161L46.1079 112.181C46.3079 112.181 46.8079 112.081 46.8079 111.308V109.334C46.8079 108.561 46.3079 108.461 46.1079 108.461Z" fill="#38B6FF"/>
<path d="M68.9946 124.621H60.2013C59.6746 124.621 59.2479 124.548 58.9013 124.448C58.5746 124.321 58.3479 124.148 58.1546 123.901C57.9546 123.621 57.8013 123.248 57.7279 122.774C57.7013 122.648 57.7013 122.474 57.6746 122.348C57.6746 122.348 57.7013 120.554 57.7279 120.554H68.8946C69.0946 120.554 69.5946 120.454 69.5946 119.674V117.701C69.5946 116.928 69.0946 116.854 68.8946 116.854L56.0013 116.881C55.2813 116.928 54.6546 117.301 54.3013 117.928C54.1813 118.128 54.0813 118.328 54.0279 118.554L53.9813 121.701V121.828C54.0079 123.001 54.1279 124.001 54.3013 124.821C54.5279 125.821 54.9013 126.648 55.3813 127.268C55.8813 127.921 56.5279 128.368 57.3279 128.648C58.1013 128.948 59.0279 129.068 60.1279 129.068H68.9946C69.2146 129.068 69.7146 128.994 69.7146 128.221V125.474C69.7146 124.701 69.2146 124.621 68.9946 124.621ZM69.0146 108.461H54.6546C54.4546 108.461 53.9813 108.561 53.9813 109.361V111.308C53.9813 112.081 54.4546 112.161 54.6546 112.161L69.0146 112.181C69.2146 112.181 69.7146 112.081 69.7146 111.308V109.334C69.7146 108.561 69.2146 108.461 69.0146 108.461Z" fill="#38B6FF"/>
<path d="M93.9479 113.154C93.6946 112.108 93.2746 111.234 92.7479 110.534C92.2013 109.861 91.4746 109.334 90.6279 109.008C89.7746 108.688 88.7746 108.508 87.6013 108.508H78.8879V108.534C78.1613 108.588 77.5346 108.988 77.1613 109.588C77.0613 109.788 76.9613 110.008 76.9146 110.208L76.8879 127.268C76.9346 127.548 77.0346 127.821 77.1613 128.048C77.5613 128.721 78.2879 129.121 79.0613 129.121H87.6013C88.7746 129.121 89.8013 128.948 90.6279 128.621C91.4746 128.294 92.2013 127.768 92.7479 127.068C93.2746 126.394 93.6946 125.521 93.9479 124.474C94.1946 123.421 94.3213 122.174 94.3213 120.774V116.854C94.3213 115.454 94.1946 114.208 93.9479 113.154ZM80.5613 125.274V112.361C80.5613 112.261 80.5813 112.208 80.6079 112.208H87.5279C88.1013 112.208 88.6013 112.281 89.0013 112.434C89.4013 112.581 89.7013 112.781 89.9279 113.108C90.1746 113.434 90.3479 113.854 90.4479 114.381C90.5479 114.954 90.6279 115.654 90.6279 116.481V121.148C90.6279 121.974 90.5479 122.674 90.4479 123.221C90.3479 123.774 90.1746 124.201 89.9279 124.521C89.7013 124.821 89.4013 125.048 89.0013 125.194C88.6013 125.348 88.1013 125.394 87.5279 125.394H80.5813C80.5813 125.394 80.5613 125.374 80.5613 125.274Z" fill="#38B6FF"/>
<path d="M104.487 108.508H102.193C101.993 108.508 101.493 108.608 101.493 109.388V128.248C101.493 129.021 101.993 129.121 102.193 129.121H104.487C104.687 129.121 105.187 129.021 105.187 128.248V109.388C105.187 108.608 104.687 108.508 104.487 108.508Z" fill="#38B6FF"/>
<path d="M127.393 108.508H113.033C112.833 108.508 112.36 108.608 112.36 109.408V111.334C112.36 112.108 112.833 112.208 113.033 112.208H127.393C127.593 112.208 128.093 112.134 128.093 111.361V109.388C128.093 108.588 127.593 108.508 127.393 108.508ZM127.273 116.881L114.38 116.901C113.66 116.954 113.033 117.354 112.66 117.954C112.56 118.154 112.46 118.381 112.407 118.601L112.36 128.248C112.36 129.021 112.86 129.121 113.06 129.121H115.353C115.553 129.121 116.053 129.021 116.053 128.248C116.053 128.248 116.08 120.574 116.107 120.574H127.273C127.473 120.574 127.973 120.501 127.973 119.728V117.754C127.973 116.981 127.473 116.881 127.273 116.881Z" fill="#38B6FF"/>
<path d="M153.753 108.508H150.98C150.753 108.508 150.453 108.588 150.253 108.961L144.76 118.974L139.313 108.988C139.113 108.588 138.813 108.508 138.587 108.508H135.74C135.513 108.508 135.34 108.634 135.293 108.861C135.24 109.034 135.267 109.234 135.367 109.408L142.86 122.774V128.248C142.86 129.021 143.36 129.094 143.56 129.094H145.853C146.053 129.094 146.553 129.021 146.553 128.248V122.774L154.127 109.408C154.227 109.234 154.247 109.034 154.2 108.834C154.127 108.634 153.953 108.508 153.753 108.508Z" fill="#38B6FF"/>
</g>
<defs>
<clipPath id="clip0_2044_7829">
<rect width="160" height="160" fill="white" transform="translate(0.5)"/>
</clipPath>
</defs>
</svg>
